<svg width="211" height="32" viewBox="0 0 211 32" fill="none" xmlns="http://www.w3.org/2000/svg">
<g id="Vector">
<path d="M10.6992 25.7417C10.6992 25.8816 10.5593 25.9815 10.3594 25.9815C10.1596 25.9815 9.99971 25.9815 9.99971 25.7417C9.99971 25.5019 10.1596 25.5019 10.3395 25.5019C10.5193 25.5019 10.6992 25.6018 10.6992 25.7417ZM8.70071 25.4419C8.70071 25.5818 8.70071 25.7417 8.98049 25.7817C9.05206 25.816 9.13434 25.8206 9.20927 25.7944C9.2842 25.7682 9.34567 25.7133 9.38019 25.6418C9.38019 25.5019 9.38019 25.362 9.1004 25.302C8.82062 25.2421 8.74068 25.302 8.70071 25.4419ZM11.5385 25.342C11.3587 25.342 11.2388 25.5019 11.2587 25.6618C11.2787 25.8216 11.4386 25.8816 11.6385 25.8416C11.8383 25.8017 11.9382 25.6618 11.9182 25.5219C11.8983 25.382 11.7384 25.322 11.5385 25.342ZM15.7953 0.0014401C13.6876 -0.0183964 11.5977 0.387774 9.65086 1.19558C7.70405 2.00338 5.9405 3.19616 4.46604 4.70235C2.99159 6.20853 1.83662 7.99707 1.07044 9.96064C0.304264 11.9242 -0.0573246 14.0223 0.00737414 16.1291C-0.0484126 19.5802 0.97509 22.9626 2.93493 25.8039C4.89477 28.6451 7.69307 30.8033 10.939 31.9769C11.7584 32.1168 12.0581 31.5972 12.0581 31.1775C12.0581 30.7579 12.0581 28.4996 12.0581 27.1806C12.0581 27.1806 7.5416 28.1798 6.58233 25.1821C6.58233 25.1821 5.86289 23.1837 4.8037 22.764C4.8037 22.764 3.32483 21.7248 4.90362 21.7448C5.42072 21.8145 5.91426 22.0045 6.34463 22.2995C6.775 22.5945 7.1302 22.9863 7.38172 23.4435C7.59083 23.8533 7.88148 24.2162 8.23584 24.5097C8.59021 24.8032 9.00081 25.0212 9.44246 25.1503C9.8841 25.2795 10.3475 25.317 10.8041 25.2606C11.2608 25.2042 11.7011 25.0551 12.0981 24.8224C12.1737 23.9881 12.5335 23.205 13.1173 22.6041C9.52008 22.1844 5.88287 21.6648 5.88287 15.2897C5.84467 14.5695 5.96037 13.8495 6.22226 13.1775C6.48416 12.5055 6.88623 11.8971 7.40171 11.3927C6.91537 9.92978 6.97213 8.34064 7.56158 6.91614C8.92054 6.47648 12.0182 8.69478 12.0182 8.69478C14.6645 7.94842 17.4656 7.94842 20.112 8.69478C20.112 8.69478 23.2096 6.47648 24.5685 6.91614C25.1707 8.33785 25.2277 9.93166 24.7284 11.3927C25.2621 11.8902 25.6854 12.494 25.9711 13.1653C26.2568 13.8365 26.3986 14.5603 26.3872 15.2897C26.3872 21.6848 22.5901 22.1844 18.9928 22.6041C19.3544 23.0096 19.6294 23.4846 19.8012 24C19.9731 24.5154 20.038 25.0605 19.9921 25.6018C19.9921 27.8401 19.9921 30.598 19.9921 31.1376C19.9908 31.2725 20.022 31.4058 20.0832 31.5261C20.1444 31.6464 20.2337 31.7502 20.3435 31.8286C20.4533 31.9071 20.5805 31.9579 20.7141 31.9767C20.8477 31.9956 20.984 31.982 21.1112 31.937C24.3512 30.7735 27.1437 28.6215 29.0945 25.785C31.0453 22.9485 32.0556 19.5709 31.9829 16.1291C32.0017 14.0009 31.5953 11.8903 30.7877 9.92122C29.9801 7.95211 28.7875 6.16406 27.2798 4.66193C25.7721 3.1598 23.9796 1.97381 22.0075 1.17353C20.0354 0.373238 17.9234 -0.0252465 15.7953 0.0014401ZM6.28256 22.804C6.28256 22.804 6.28256 23.0238 6.28256 23.1437C6.30484 23.1661 6.33132 23.1838 6.36047 23.1959C6.38962 23.208 6.42087 23.2142 6.45243 23.2142C6.484 23.2142 6.51525 23.208 6.5444 23.1959C6.57355 23.1838 6.60002 23.1661 6.6223 23.1437C6.6223 23.1437 6.6223 22.9239 6.6223 22.784C6.6223 22.6441 6.3625 22.724 6.28256 22.804ZM5.5831 22.2644C5.5831 22.2644 5.5831 22.4642 5.72299 22.5242C5.73985 22.545 5.76117 22.5619 5.78537 22.5734C5.80958 22.585 5.83606 22.591 5.86288 22.591C5.88971 22.591 5.91619 22.585 5.9404 22.5734C5.9646 22.5619 5.98592 22.545 6.00278 22.5242C6.00278 22.5242 6.00278 22.3243 5.86288 22.2644C5.72299 22.2044 5.62307 22.2044 5.5831 22.2644ZM7.58157 24.6226C7.58157 24.6226 7.58157 24.9024 7.58157 25.0422C7.58157 25.1821 7.92131 25.2021 8.00125 25.0422C8.08118 24.8824 8.00125 24.7625 8.00125 24.6226C8.00125 24.4827 7.74145 24.5226 7.66151 24.6226H7.58157ZM6.84213 23.6433C6.84213 23.6433 6.84213 23.8831 6.84213 24.043C6.84213 24.2029 7.12192 24.2628 7.22184 24.2029C7.27246 24.1447 7.30033 24.0702 7.30033 23.993C7.30033 23.9159 7.27246 23.8414 7.22184 23.7832C7.12192 23.6233 6.96204 23.5634 6.84213 23.6433Z" fill="white" fill-opacity="0.7"/>
<path d="M10.6992 25.7417C10.6992 25.8816 10.5593 25.9815 10.3594 25.9815C10.1596 25.9815 9.99971 25.9815 9.99971 25.7417C9.99971 25.5019 10.1596 25.5019 10.3395 25.5019C10.5193 25.5019 10.6992 25.6018 10.6992 25.7417ZM8.70071 25.4419C8.70071 25.5818 8.70071 25.7417 8.98049 25.7817C9.05206 25.816 9.13434 25.8206 9.20927 25.7944C9.2842 25.7682 9.34567 25.7133 9.38019 25.6418C9.38019 25.5019 9.38019 25.362 9.1004 25.302C8.82062 25.2421 8.74068 25.302 8.70071 25.4419ZM11.5385 25.342C11.3587 25.342 11.2388 25.5019 11.2587 25.6618C11.2787 25.8216 11.4386 25.8816 11.6385 25.8416C11.8383 25.8017 11.9382 25.6618 11.9182 25.5219C11.8983 25.382 11.7384 25.322 11.5385 25.342ZM15.7953 0.0014401C13.6876 -0.0183964 11.5977 0.387774 9.65086 1.19558C7.70405 2.00338 5.9405 3.19616 4.46604 4.70235C2.99159 6.20853 1.83662 7.99707 1.07044 9.96064C0.304264 11.9242 -0.0573246 14.0223 0.00737414 16.1291C-0.0484126 19.5802 0.97509 22.9626 2.93493 25.8039C4.89477 28.6451 7.69307 30.8033 10.939 31.9769C11.7584 32.1168 12.0581 31.5972 12.0581 31.1775C12.0581 30.7579 12.0581 28.4996 12.0581 27.1806C12.0581 27.1806 7.5416 28.1798 6.58233 25.1821C6.58233 25.1821 5.86289 23.1837 4.8037 22.764C4.8037 22.764 3.32483 21.7248 4.90362 21.7448C5.42072 21.8145 5.91426 22.0045 6.34463 22.2995C6.775 22.5945 7.1302 22.9863 7.38172 23.4435C7.59083 23.8533 7.88148 24.2162 8.23584 24.5097C8.59021 24.8032 9.00081 25.0212 9.44246 25.1503C9.8841 25.2795 10.3475 25.317 10.8041 25.2606C11.2608 25.2042 11.7011 25.0551 12.0981 24.8224C12.1737 23.9881 12.5335 23.205 13.1173 22.6041C9.52008 22.1844 5.88287 21.6648 5.88287 15.2897C5.84467 14.5695 5.96037 13.8495 6.22226 13.1775C6.48416 12.5055 6.88623 11.8971 7.40171 11.3927C6.91537 9.92978 6.97213 8.34064 7.56158 6.91614C8.92054 6.47648 12.0182 8.69478 12.0182 8.69478C14.6645 7.94842 17.4656 7.94842 20.112 8.69478C20.112 8.69478 23.2096 6.47648 24.5685 6.91614C25.1707 8.33785 25.2277 9.93166 24.7284 11.3927C25.2621 11.8902 25.6854 12.494 25.9711 13.1653C26.2568 13.8365 26.3986 14.5603 26.3872 15.2897C26.3872 21.6848 22.5901 22.1844 18.9928 22.6041C19.3544 23.0096 19.6294 23.4846 19.8012 24C19.9731 24.5154 20.038 25.0605 19.9921 25.6018C19.9921 27.8401 19.9921 30.598 19.9921 31.1376C19.9908 31.2725 20.022 31.4058 20.0832 31.5261C20.1444 31.6464 20.2337 31.7502 20.3435 31.8286C20.4533 31.9071 20.5805 31.9579 20.7141 31.9767C20.8477 31.9956 20.984 31.982 21.1112 31.937C24.3512 30.7735 27.1437 28.6215 29.0945 25.785C31.0453 22.9485 32.0556 19.5709 31.9829 16.1291C32.0017 14.0009 31.5953 11.8903 30.7877 9.92122C29.9801 7.95211 28.7875 6.16406 27.2798 4.66193C25.7721 3.1598 23.9796 1.97381 22.0075 1.17353C20.0354 0.373238 17.9234 -0.0252465 15.7953 0.0014401ZM6.28256 22.804C6.28256 22.804 6.28256 23.0238 6.28256 23.1437C6.30484 23.1661 6.33132 23.1838 6.36047 23.1959C6.38962 23.208 6.42087 23.2142 6.45243 23.2142C6.484 23.2142 6.51525 23.208 6.5444 23.1959C6.57355 23.1838 6.60002 23.1661 6.6223 23.1437C6.6223 23.1437 6.6223 22.9239 6.6223 22.784C6.6223 22.6441 6.3625 22.724 6.28256 22.804ZM5.5831 22.2644C5.5831 22.2644 5.5831 22.4642 5.72299 22.5242C5.73985 22.545 5.76117 22.5619 5.78537 22.5734C5.80958 22.585 5.83606 22.591 5.86288 22.591C5.88971 22.591 5.91619 22.585 5.9404 22.5734C5.9646 22.5619 5.98592 22.545 6.00278 22.5242C6.00278 22.5242 6.00278 22.3243 5.86288 22.2644C5.72299 22.2044 5.62307 22.2044 5.5831 22.2644ZM7.58157 24.6226C7.58157 24.6226 7.58157 24.9024 7.58157 25.0422C7.58157 25.1821 7.92131 25.2021 8.00125 25.0422C8.08118 24.8824 8.00125 24.7625 8.00125 24.6226C8.00125 24.4827 7.74145 24.5226 7.66151 24.6226H7.58157ZM6.84213 23.6433C6.84213 23.6433 6.84213 23.8831 6.84213 24.043C6.84213 24.2029 7.12192 24.2628 7.22184 24.2029C7.27246 24.1447 7.30033 24.0702 7.30033 23.993C7.30033 23.9159 7.27246 23.8414 7.22184 23.7832C7.12192 23.6233 6.96204 23.5634 6.84213 23.6433Z" fill="url(#paint0_linear_280_446)"/>
<path d="M56.8729 25.9815H49.9776V5.63349H57.012C59.0322 5.63349 60.7676 6.04084 62.2182 6.85556C63.6754 7.66365 64.7948 8.82611 65.5764 10.3429C66.358 11.8598 66.7488 13.6747 66.7488 15.7876C66.7488 17.9072 66.3547 19.7287 65.5665 21.2522C64.7849 22.7756 63.6556 23.9447 62.1785 24.7594C60.708 25.5742 58.9395 25.9815 56.8729 25.9815ZM53.6637 22.7922H56.694C58.1115 22.7922 59.2938 22.5339 60.241 22.0172C61.1882 21.494 61.9003 20.7157 62.3772 19.6824C62.8541 18.6425 63.0925 17.3442 63.0925 15.7876C63.0925 14.2311 62.8541 12.9394 62.3772 11.9128C61.9003 10.8795 61.1948 10.1078 60.2609 9.59778C59.3336 9.08113 58.1811 8.8228 56.8033 8.8228H53.6637V22.7922Z" fill="white" fill-opacity="0.7"/>
<path d="M56.8729 25.9815H49.9776V5.63349H57.012C59.0322 5.63349 60.7676 6.04084 62.2182 6.85556C63.6754 7.66365 64.7948 8.82611 65.5764 10.3429C66.358 11.8598 66.7488 13.6747 66.7488 15.7876C66.7488 17.9072 66.3547 19.7287 65.5665 21.2522C64.7849 22.7756 63.6556 23.9447 62.1785 24.7594C60.708 25.5742 58.9395 25.9815 56.8729 25.9815ZM53.6637 22.7922H56.694C58.1115 22.7922 59.2938 22.5339 60.241 22.0172C61.1882 21.494 61.9003 20.7157 62.3772 19.6824C62.8541 18.6425 63.0925 17.3442 63.0925 15.7876C63.0925 14.2311 62.8541 12.9394 62.3772 11.9128C61.9003 10.8795 61.1948 10.1078 60.2609 9.59778C59.3336 9.08113 58.1811 8.8228 56.8033 8.8228H53.6637V22.7922Z" fill="url(#paint1_linear_280_446)"/>
<path d="M70.0921 25.9815V10.7205H73.6888V25.9815H70.0921ZM71.9004 8.55454C71.3308 8.55454 70.8406 8.36577 70.4299 7.98821C70.0193 7.60404 69.8139 7.14369 69.8139 6.60717C69.8139 6.06403 70.0193 5.60368 70.4299 5.22613C70.8406 4.84195 71.3308 4.64986 71.9004 4.64986C72.4767 4.64986 72.9668 4.84195 73.3709 5.22613C73.7815 5.60368 73.9869 6.06403 73.9869 6.60717C73.9869 7.14369 73.7815 7.60404 73.3709 7.98821C72.9668 8.36577 72.4767 8.55454 71.9004 8.55454Z" fill="white" fill-opacity="0.7"/>
<path d="M70.0921 25.9815V10.7205H73.6888V25.9815H70.0921ZM71.9004 8.55454C71.3308 8.55454 70.8406 8.36577 70.4299 7.98821C70.0193 7.60404 69.8139 7.14369 69.8139 6.60717C69.8139 6.06403 70.0193 5.60368 70.4299 5.22613C70.8406 4.84195 71.3308 4.64986 71.9004 4.64986C72.4767 4.64986 72.9668 4.84195 73.3709 5.22613C73.7815 5.60368 73.9869 6.06403 73.9869 6.60717C73.9869 7.14369 73.7815 7.60404 73.3709 7.98821C72.9668 8.36577 72.4767 8.55454 71.9004 8.55454Z" fill="url(#paint2_linear_280_446)"/>
<path d="M89.4491 14.7543L86.1704 15.112C86.0776 14.7808 85.9154 14.4695 85.6835 14.1781C85.4583 13.8866 85.1536 13.6515 84.7695 13.4726C84.3853 13.2938 83.915 13.2044 83.3586 13.2044C82.6101 13.2044 81.9809 13.3667 81.4708 13.6912C80.9674 14.0158 80.7191 14.4364 80.7257 14.953C80.7191 15.3968 80.8813 15.7578 81.2125 16.036C81.5503 16.3142 82.1067 16.5427 82.8817 16.7216L85.4848 17.278C86.9288 17.5893 88.0018 18.0827 88.7039 18.7584C89.4127 19.434 89.7704 20.3183 89.777 21.4112C89.7704 22.3716 89.4888 23.2194 88.9325 23.9547C88.3827 24.6833 87.6176 25.2529 86.6373 25.6636C85.657 26.0743 84.531 26.2796 83.2592 26.2796C81.3914 26.2796 79.8878 25.8888 78.7485 25.1072C77.6092 24.319 76.9303 23.2227 76.7117 21.8185L80.219 21.4807C80.3779 22.1696 80.7157 22.6895 81.2324 23.0406C81.749 23.3917 82.4213 23.5672 83.2493 23.5672C84.1038 23.5672 84.7893 23.3917 85.306 23.0406C85.8292 22.6895 86.0909 22.2557 86.0909 21.739C86.0909 21.3019 85.922 20.9409 85.5842 20.6561C85.253 20.3712 84.7363 20.1527 84.0342 20.0003L81.4311 19.4539C79.9673 19.1492 78.8843 18.6358 78.1822 17.9138C77.4801 17.1852 77.1323 16.2645 77.1389 15.1518C77.1323 14.2112 77.3873 13.3965 77.904 12.7076C78.4272 12.0121 79.1525 11.4756 80.0799 11.098C81.0138 10.7139 82.0902 10.5218 83.3089 10.5218C85.0973 10.5218 86.5049 10.9026 87.5315 11.6644C88.5648 12.4261 89.204 13.4561 89.4491 14.7543Z" fill="white" fill-opacity="0.7"/>
<path d="M89.4491 14.7543L86.1704 15.112C86.0776 14.7808 85.9154 14.4695 85.6835 14.1781C85.4583 13.8866 85.1536 13.6515 84.7695 13.4726C84.3853 13.2938 83.915 13.2044 83.3586 13.2044C82.6101 13.2044 81.9809 13.3667 81.4708 13.6912C80.9674 14.0158 80.7191 14.4364 80.7257 14.953C80.7191 15.3968 80.8813 15.7578 81.2125 16.036C81.5503 16.3142 82.1067 16.5427 82.8817 16.7216L85.4848 17.278C86.9288 17.5893 88.0018 18.0827 88.7039 18.7584C89.4127 19.434 89.7704 20.3183 89.777 21.4112C89.7704 22.3716 89.4888 23.2194 88.9325 23.9547C88.3827 24.6833 87.6176 25.2529 86.6373 25.6636C85.657 26.0743 84.531 26.2796 83.2592 26.2796C81.3914 26.2796 79.8878 25.8888 78.7485 25.1072C77.6092 24.319 76.9303 23.2227 76.7117 21.8185L80.219 21.4807C80.3779 22.1696 80.7157 22.6895 81.2324 23.0406C81.749 23.3917 82.4213 23.5672 83.2493 23.5672C84.1038 23.5672 84.7893 23.3917 85.306 23.0406C85.8292 22.6895 86.0909 22.2557 86.0909 21.739C86.0909 21.3019 85.922 20.9409 85.5842 20.6561C85.253 20.3712 84.7363 20.1527 84.0342 20.0003L81.4311 19.4539C79.9673 19.1492 78.8843 18.6358 78.1822 17.9138C77.4801 17.1852 77.1323 16.2645 77.1389 15.1518C77.1323 14.2112 77.3873 13.3965 77.904 12.7076C78.4272 12.0121 79.1525 11.4756 80.0799 11.098C81.0138 10.7139 82.0902 10.5218 83.3089 10.5218C85.0973 10.5218 86.5049 10.9026 87.5315 11.6644C88.5648 12.4261 89.204 13.4561 89.4491 14.7543Z" fill="url(#paint3_linear_280_446)"/>
<path d="M99.3996 26.2796C97.8761 26.2796 96.5679 25.9451 95.475 25.2761C94.3887 24.6071 93.5508 23.6831 92.9613 22.5041C92.3784 21.3184 92.087 19.9539 92.087 18.4106C92.087 16.8607 92.3851 15.4929 92.9812 14.3072C93.5773 13.115 94.4185 12.1876 95.5048 11.5253C96.5977 10.8563 97.8894 10.5218 99.3797 10.5218C100.618 10.5218 101.715 10.7503 102.668 11.2073C103.629 11.6578 104.394 12.2969 104.963 13.1249C105.533 13.9462 105.858 14.9067 105.937 16.0062H102.499C102.36 15.271 102.029 14.6583 101.506 14.1681C100.989 13.6714 100.297 13.423 99.4294 13.423C98.6942 13.423 98.0483 13.6217 97.4919 14.0191C96.9355 14.4099 96.5017 14.9729 96.1904 15.7081C95.8857 16.4434 95.7333 17.3243 95.7333 18.351C95.7333 19.3909 95.8857 20.2851 96.1904 21.0336C96.4951 21.7755 96.9223 22.3484 97.4721 22.7525C98.0285 23.1499 98.6809 23.3486 99.4294 23.3486C99.9593 23.3486 100.433 23.2492 100.85 23.0505C101.274 22.8452 101.628 22.5504 101.913 22.1663C102.198 21.7821 102.393 21.3151 102.499 20.7654H105.937C105.851 21.845 105.533 22.8021 104.983 23.6367C104.434 24.4647 103.685 25.1138 102.738 25.5841C101.791 26.0478 100.678 26.2796 99.3996 26.2796Z" fill="white" fill-opacity="0.7"/>
<path d="M99.3996 26.2796C97.8761 26.2796 96.5679 25.9451 95.475 25.2761C94.3887 24.6071 93.5508 23.6831 92.9613 22.5041C92.3784 21.3184 92.087 19.9539 92.087 18.4106C92.087 16.8607 92.3851 15.4929 92.9812 14.3072C93.5773 13.115 94.4185 12.1876 95.5048 11.5253C96.5977 10.8563 97.8894 10.5218 99.3797 10.5218C100.618 10.5218 101.715 10.7503 102.668 11.2073C103.629 11.6578 104.394 12.2969 104.963 13.1249C105.533 13.9462 105.858 14.9067 105.937 16.0062H102.499C102.36 15.271 102.029 14.6583 101.506 14.1681C100.989 13.6714 100.297 13.423 99.4294 13.423C98.6942 13.423 98.0483 13.6217 97.4919 14.0191C96.9355 14.4099 96.5017 14.9729 96.1904 15.7081C95.8857 16.4434 95.7333 17.3243 95.7333 18.351C95.7333 19.3909 95.8857 20.2851 96.1904 21.0336C96.4951 21.7755 96.9223 22.3484 97.4721 22.7525C98.0285 23.1499 98.6809 23.3486 99.4294 23.3486C99.9593 23.3486 100.433 23.2492 100.85 23.0505C101.274 22.8452 101.628 22.5504 101.913 22.1663C102.198 21.7821 102.393 21.3151 102.499 20.7654H105.937C105.851 21.845 105.533 22.8021 104.983 23.6367C104.434 24.4647 103.685 25.1138 102.738 25.5841C101.791 26.0478 100.678 26.2796 99.3996 26.2796Z" fill="url(#paint4_linear_280_446)"/>
<path d="M118.617 19.5631V10.7205H122.214V25.9815H118.727V23.2691H118.568C118.223 24.1236 117.657 24.8224 116.869 25.3655C116.087 25.9087 115.123 26.1802 113.978 26.1802C112.977 26.1802 112.093 25.9583 111.325 25.5146C110.563 25.0641 109.967 24.4117 109.536 23.5572C109.106 22.6962 108.891 21.6562 108.891 20.4375V10.7205H112.487V19.8811C112.487 20.8481 112.752 21.6165 113.282 22.1861C113.812 22.7558 114.507 23.0406 115.369 23.0406C115.898 23.0406 116.412 22.9114 116.909 22.6531C117.405 22.3948 117.813 22.0106 118.131 21.5006C118.455 20.9839 118.617 20.3381 118.617 19.5631Z" fill="white" fill-opacity="0.7"/>
<path d="M118.617 19.5631V10.7205H122.214V25.9815H118.727V23.2691H118.568C118.223 24.1236 117.657 24.8224 116.869 25.3655C116.087 25.9087 115.123 26.1802 113.978 26.1802C112.977 26.1802 112.093 25.9583 111.325 25.5146C110.563 25.0641 109.967 24.4117 109.536 23.5572C109.106 22.6962 108.891 21.6562 108.891 20.4375V10.7205H112.487V19.8811C112.487 20.8481 112.752 21.6165 113.282 22.1861C113.812 22.7558 114.507 23.0406 115.369 23.0406C115.898 23.0406 116.412 22.9114 116.909 22.6531C117.405 22.3948 117.813 22.0106 118.131 21.5006C118.455 20.9839 118.617 20.3381 118.617 19.5631Z" fill="url(#paint5_linear_280_446)"/>
<path d="M137.974 14.7543L134.696 15.112C134.603 14.7808 134.441 14.4695 134.209 14.1781C133.984 13.8866 133.679 13.6515 133.295 13.4726C132.911 13.2938 132.44 13.2044 131.884 13.2044C131.135 13.2044 130.506 13.3667 129.996 13.6912C129.493 14.0158 129.244 14.4364 129.251 14.953C129.244 15.3968 129.407 15.7578 129.738 16.036C130.076 16.3142 130.632 16.5427 131.407 16.7216L134.01 17.278C135.454 17.5893 136.527 18.0827 137.229 18.7584C137.938 19.434 138.296 20.3183 138.302 21.4112C138.296 22.3716 138.014 23.2194 137.458 23.9547C136.908 24.6833 136.143 25.2529 135.163 25.6636C134.182 26.0743 133.056 26.2796 131.785 26.2796C129.917 26.2796 128.413 25.8888 127.274 25.1072C126.135 24.319 125.456 23.2227 125.237 21.8185L128.744 21.4807C128.903 22.1696 129.241 22.6895 129.758 23.0406C130.274 23.3917 130.947 23.5672 131.775 23.5672C132.629 23.5672 133.315 23.3917 133.831 23.0406C134.355 22.6895 134.616 22.2557 134.616 21.739C134.616 21.3019 134.447 20.9409 134.109 20.6561C133.778 20.3712 133.262 20.1527 132.56 20.0003L129.956 19.4539C128.493 19.1492 127.41 18.6358 126.707 17.9138C126.005 17.1852 125.658 16.2645 125.664 15.1518C125.658 14.2112 125.913 13.3965 126.429 12.7076C126.953 12.0121 127.678 11.4756 128.605 11.098C129.539 10.7139 130.615 10.5218 131.834 10.5218C133.623 10.5218 135.03 10.9026 136.057 11.6644C137.09 12.4261 137.729 13.4561 137.974 14.7543Z" fill="white" fill-opacity="0.7"/>
<path d="M137.974 14.7543L134.696 15.112C134.603 14.7808 134.441 14.4695 134.209 14.1781C133.984 13.8866 133.679 13.6515 133.295 13.4726C132.911 13.2938 132.44 13.2044 131.884 13.2044C131.135 13.2044 130.506 13.3667 129.996 13.6912C129.493 14.0158 129.244 14.4364 129.251 14.953C129.244 15.3968 129.407 15.7578 129.738 16.036C130.076 16.3142 130.632 16.5427 131.407 16.7216L134.01 17.278C135.454 17.5893 136.527 18.0827 137.229 18.7584C137.938 19.434 138.296 20.3183 138.302 21.4112C138.296 22.3716 138.014 23.2194 137.458 23.9547C136.908 24.6833 136.143 25.2529 135.163 25.6636C134.182 26.0743 133.056 26.2796 131.785 26.2796C129.917 26.2796 128.413 25.8888 127.274 25.1072C126.135 24.319 125.456 23.2227 125.237 21.8185L128.744 21.4807C128.903 22.1696 129.241 22.6895 129.758 23.0406C130.274 23.3917 130.947 23.5672 131.775 23.5672C132.629 23.5672 133.315 23.3917 133.831 23.0406C134.355 22.6895 134.616 22.2557 134.616 21.739C134.616 21.3019 134.447 20.9409 134.109 20.6561C133.778 20.3712 133.262 20.1527 132.56 20.0003L129.956 19.4539C128.493 19.1492 127.41 18.6358 126.707 17.9138C126.005 17.1852 125.658 16.2645 125.664 15.1518C125.658 14.2112 125.913 13.3965 126.429 12.7076C126.953 12.0121 127.678 11.4756 128.605 11.098C129.539 10.7139 130.615 10.5218 131.834 10.5218C133.623 10.5218 135.03 10.9026 136.057 11.6644C137.09 12.4261 137.729 13.4561 137.974 14.7543Z" fill="url(#paint6_linear_280_446)"/>
<path d="M153.33 14.7543L150.051 15.112C149.958 14.7808 149.796 14.4695 149.564 14.1781C149.339 13.8866 149.034 13.6515 148.65 13.4726C148.266 13.2938 147.796 13.2044 147.239 13.2044C146.491 13.2044 145.862 13.3667 145.352 13.6912C144.848 14.0158 144.6 14.4364 144.606 14.953C144.6 15.3968 144.762 15.7578 145.093 16.036C145.431 16.3142 145.987 16.5427 146.762 16.7216L149.366 17.278C150.81 17.5893 151.883 18.0827 152.585 18.7584C153.293 19.434 153.651 20.3183 153.658 21.4112C153.651 22.3716 153.37 23.2194 152.813 23.9547C152.263 24.6833 151.498 25.2529 150.518 25.6636C149.538 26.0743 148.412 26.2796 147.14 26.2796C145.272 26.2796 143.768 25.8888 142.629 25.1072C141.49 24.319 140.811 23.2227 140.592 21.8185L144.1 21.4807C144.259 22.1696 144.596 22.6895 145.113 23.0406C145.63 23.3917 146.302 23.5672 147.13 23.5672C147.984 23.5672 148.67 23.3917 149.187 23.0406C149.71 22.6895 149.972 22.2557 149.972 21.739C149.972 21.3019 149.803 20.9409 149.465 20.6561C149.134 20.3712 148.617 20.1527 147.915 20.0003L145.312 19.4539C143.848 19.1492 142.765 18.6358 142.063 17.9138C141.361 17.1852 141.013 16.2645 141.02 15.1518C141.013 14.2112 141.268 13.3965 141.785 12.7076C142.308 12.0121 143.033 11.4756 143.961 11.098C144.895 10.7139 145.971 10.5218 147.19 10.5218C148.978 10.5218 150.386 10.9026 151.412 11.6644C152.446 12.4261 153.085 13.4561 153.33 14.7543Z" fill="white" fill-opacity="0.7"/>
<path d="M153.33 14.7543L150.051 15.112C149.958 14.7808 149.796 14.4695 149.564 14.1781C149.339 13.8866 149.034 13.6515 148.65 13.4726C148.266 13.2938 147.796 13.2044 147.239 13.2044C146.491 13.2044 145.862 13.3667 145.352 13.6912C144.848 14.0158 144.6 14.4364 144.606 14.953C144.6 15.3968 144.762 15.7578 145.093 16.036C145.431 16.3142 145.987 16.5427 146.762 16.7216L149.366 17.278C150.81 17.5893 151.883 18.0827 152.585 18.7584C153.293 19.434 153.651 20.3183 153.658 21.4112C153.651 22.3716 153.37 23.2194 152.813 23.9547C152.263 24.6833 151.498 25.2529 150.518 25.6636C149.538 26.0743 148.412 26.2796 147.14 26.2796C145.272 26.2796 143.768 25.8888 142.629 25.1072C141.49 24.319 140.811 23.2227 140.592 21.8185L144.1 21.4807C144.259 22.1696 144.596 22.6895 145.113 23.0406C145.63 23.3917 146.302 23.5672 147.13 23.5672C147.984 23.5672 148.67 23.3917 149.187 23.0406C149.71 22.6895 149.972 22.2557 149.972 21.739C149.972 21.3019 149.803 20.9409 149.465 20.6561C149.134 20.3712 148.617 20.1527 147.915 20.0003L145.312 19.4539C143.848 19.1492 142.765 18.6358 142.063 17.9138C141.361 17.1852 141.013 16.2645 141.02 15.1518C141.013 14.2112 141.268 13.3965 141.785 12.7076C142.308 12.0121 143.033 11.4756 143.961 11.098C144.895 10.7139 145.971 10.5218 147.19 10.5218C148.978 10.5218 150.386 10.9026 151.412 11.6644C152.446 12.4261 153.085 13.4561 153.33 14.7543Z" fill="url(#paint7_linear_280_446)"/>
<path d="M156.623 25.9815V10.7205H160.22V25.9815H156.623ZM158.432 8.55454C157.862 8.55454 157.372 8.36577 156.961 7.98821C156.551 7.60404 156.345 7.14369 156.345 6.60717C156.345 6.06403 156.551 5.60368 156.961 5.22613C157.372 4.84195 157.862 4.64986 158.432 4.64986C159.008 4.64986 159.498 4.84195 159.902 5.22613C160.313 5.60368 160.518 6.06403 160.518 6.60717C160.518 7.14369 160.313 7.60404 159.902 7.98821C159.498 8.36577 159.008 8.55454 158.432 8.55454Z" fill="white" fill-opacity="0.7"/>
<path d="M156.623 25.9815V10.7205H160.22V25.9815H156.623ZM158.432 8.55454C157.862 8.55454 157.372 8.36577 156.961 7.98821C156.551 7.60404 156.345 7.14369 156.345 6.60717C156.345 6.06403 156.551 5.60368 156.961 5.22613C157.372 4.84195 157.862 4.64986 158.432 4.64986C159.008 4.64986 159.498 4.84195 159.902 5.22613C160.313 5.60368 160.518 6.06403 160.518 6.60717C160.518 7.14369 160.313 7.60404 159.902 7.98821C159.498 8.36577 159.008 8.55454 158.432 8.55454Z" fill="url(#paint8_linear_280_446)"/>
<path d="M170.575 26.2796C169.085 26.2796 167.794 25.9517 166.701 25.296C165.608 24.6402 164.76 23.7228 164.157 22.5438C163.561 21.3648 163.263 19.9871 163.263 18.4106C163.263 16.8342 163.561 15.4531 164.157 14.2675C164.76 13.0818 165.608 12.1612 166.701 11.5054C167.794 10.8497 169.085 10.5218 170.575 10.5218C172.066 10.5218 173.357 10.8497 174.45 11.5054C175.543 12.1612 176.388 13.0818 176.984 14.2675C177.587 15.4531 177.888 16.8342 177.888 18.4106C177.888 19.9871 177.587 21.3648 176.984 22.5438C176.388 23.7228 175.543 24.6402 174.45 25.296C173.357 25.9517 172.066 26.2796 170.575 26.2796ZM170.595 23.3983C171.403 23.3983 172.079 23.1764 172.622 22.7326C173.165 22.2822 173.569 21.6794 173.834 20.9243C174.106 20.1692 174.242 19.328 174.242 18.4007C174.242 17.4667 174.106 16.6222 173.834 15.8671C173.569 15.1054 173.165 14.4993 172.622 14.0489C172.079 13.5985 171.403 13.3733 170.595 13.3733C169.767 13.3733 169.079 13.5985 168.529 14.0489C167.986 14.4993 167.578 15.1054 167.307 15.8671C167.042 16.6222 166.909 17.4667 166.909 18.4007C166.909 19.328 167.042 20.1692 167.307 20.9243C167.578 21.6794 167.986 22.2822 168.529 22.7326C169.079 23.1764 169.767 23.3983 170.595 23.3983Z" fill="white" fill-opacity="0.7"/>
<path d="M170.575 26.2796C169.085 26.2796 167.794 25.9517 166.701 25.296C165.608 24.6402 164.76 23.7228 164.157 22.5438C163.561 21.3648 163.263 19.9871 163.263 18.4106C163.263 16.8342 163.561 15.4531 164.157 14.2675C164.76 13.0818 165.608 12.1612 166.701 11.5054C167.794 10.8497 169.085 10.5218 170.575 10.5218C172.066 10.5218 173.357 10.8497 174.45 11.5054C175.543 12.1612 176.388 13.0818 176.984 14.2675C177.587 15.4531 177.888 16.8342 177.888 18.4106C177.888 19.9871 177.587 21.3648 176.984 22.5438C176.388 23.7228 175.543 24.6402 174.45 25.296C173.357 25.9517 172.066 26.2796 170.575 26.2796ZM170.595 23.3983C171.403 23.3983 172.079 23.1764 172.622 22.7326C173.165 22.2822 173.569 21.6794 173.834 20.9243C174.106 20.1692 174.242 19.328 174.242 18.4007C174.242 17.4667 174.106 16.6222 173.834 15.8671C173.569 15.1054 173.165 14.4993 172.622 14.0489C172.079 13.5985 171.403 13.3733 170.595 13.3733C169.767 13.3733 169.079 13.5985 168.529 14.0489C167.986 14.4993 167.578 15.1054 167.307 15.8671C167.042 16.6222 166.909 17.4667 166.909 18.4007C166.909 19.328 167.042 20.1692 167.307 20.9243C167.578 21.6794 167.986 22.2822 168.529 22.7326C169.079 23.1764 169.767 23.3983 170.595 23.3983Z" fill="url(#paint9_linear_280_446)"/>
<path d="M184.537 17.0395V25.9815H180.941V10.7205H184.378V13.3137H184.557C184.908 12.4592 185.468 11.7803 186.236 11.2769C187.011 10.7735 187.969 10.5218 189.108 10.5218C190.161 10.5218 191.078 10.747 191.86 11.1974C192.648 11.6478 193.258 12.3003 193.688 13.1547C194.125 14.0092 194.341 15.0458 194.334 16.2645V25.9815H190.737V16.8209C190.737 15.8009 190.472 15.0027 189.942 14.4265C189.419 13.8502 188.694 13.5621 187.766 13.5621C187.137 13.5621 186.578 13.7012 186.087 13.9794C185.604 14.2509 185.223 14.645 184.945 15.1617C184.673 15.6783 184.537 16.3043 184.537 17.0395Z" fill="white" fill-opacity="0.7"/>
<path d="M184.537 17.0395V25.9815H180.941V10.7205H184.378V13.3137H184.557C184.908 12.4592 185.468 11.7803 186.236 11.2769C187.011 10.7735 187.969 10.5218 189.108 10.5218C190.161 10.5218 191.078 10.747 191.86 11.1974C192.648 11.6478 193.258 12.3003 193.688 13.1547C194.125 14.0092 194.341 15.0458 194.334 16.2645V25.9815H190.737V16.8209C190.737 15.8009 190.472 15.0027 189.942 14.4265C189.419 13.8502 188.694 13.5621 187.766 13.5621C187.137 13.5621 186.578 13.7012 186.087 13.9794C185.604 14.2509 185.223 14.645 184.945 15.1617C184.673 15.6783 184.537 16.3043 184.537 17.0395Z" fill="url(#paint10_linear_280_446)"/>
<path d="M210.052 14.7543L206.773 15.112C206.68 14.7808 206.518 14.4695 206.286 14.1781C206.061 13.8866 205.756 13.6515 205.372 13.4726C204.988 13.2938 204.518 13.2044 203.961 13.2044C203.213 13.2044 202.584 13.3667 202.074 13.6912C201.57 14.0158 201.322 14.4364 201.329 14.953C201.322 15.3968 201.484 15.7578 201.815 16.036C202.153 16.3142 202.71 16.5427 203.485 16.7216L206.088 17.278C207.532 17.5893 208.605 18.0827 209.307 18.7584C210.016 19.434 210.373 20.3183 210.38 21.4112C210.373 22.3716 210.092 23.2194 209.535 23.9547C208.986 24.6833 208.22 25.2529 207.24 25.6636C206.26 26.0743 205.134 26.2796 203.862 26.2796C201.994 26.2796 200.491 25.8888 199.351 25.1072C198.212 24.319 197.533 23.2227 197.315 21.8185L200.822 21.4807C200.981 22.1696 201.319 22.6895 201.835 23.0406C202.352 23.3917 203.024 23.5672 203.852 23.5672C204.707 23.5672 205.392 23.3917 205.909 23.0406C206.432 22.6895 206.694 22.2557 206.694 21.739C206.694 21.3019 206.525 20.9409 206.187 20.6561C205.856 20.3712 205.339 20.1527 204.637 20.0003L202.034 19.4539C200.57 19.1492 199.487 18.6358 198.785 17.9138C198.083 17.1852 197.735 16.2645 197.742 15.1518C197.735 14.2112 197.99 13.3965 198.507 12.7076C199.03 12.0121 199.755 11.4756 200.683 11.098C201.617 10.7139 202.693 10.5218 203.912 10.5218C205.7 10.5218 207.108 10.9026 208.134 11.6644C209.168 12.4261 209.807 13.4561 210.052 14.7543Z" fill="white" fill-opacity="0.7"/>
<path d="M210.052 14.7543L206.773 15.112C206.68 14.7808 206.518 14.4695 206.286 14.1781C206.061 13.8866 205.756 13.6515 205.372 13.4726C204.988 13.2938 204.518 13.2044 203.961 13.2044C203.213 13.2044 202.584 13.3667 202.074 13.6912C201.57 14.0158 201.322 14.4364 201.329 14.953C201.322 15.3968 201.484 15.7578 201.815 16.036C202.153 16.3142 202.71 16.5427 203.485 16.7216L206.088 17.278C207.532 17.5893 208.605 18.0827 209.307 18.7584C210.016 19.434 210.373 20.3183 210.38 21.4112C210.373 22.3716 210.092 23.2194 209.535 23.9547C208.986 24.6833 208.22 25.2529 207.24 25.6636C206.26 26.0743 205.134 26.2796 203.862 26.2796C201.994 26.2796 200.491 25.8888 199.351 25.1072C198.212 24.319 197.533 23.2227 197.315 21.8185L200.822 21.4807C200.981 22.1696 201.319 22.6895 201.835 23.0406C202.352 23.3917 203.024 23.5672 203.852 23.5672C204.707 23.5672 205.392 23.3917 205.909 23.0406C206.432 22.6895 206.694 22.2557 206.694 21.739C206.694 21.3019 206.525 20.9409 206.187 20.6561C205.856 20.3712 205.339 20.1527 204.637 20.0003L202.034 19.4539C200.57 19.1492 199.487 18.6358 198.785 17.9138C198.083 17.1852 197.735 16.2645 197.742 15.1518C197.735 14.2112 197.99 13.3965 198.507 12.7076C199.03 12.0121 199.755 11.4756 200.683 11.098C201.617 10.7139 202.693 10.5218 203.912 10.5218C205.7 10.5218 207.108 10.9026 208.134 11.6644C209.168 12.4261 209.807 13.4561 210.052 14.7543Z" fill="url(#paint11_linear_280_446)"/>
</g>
<defs>
<linearGradient id="paint0_linear_280_446" x1="-34.4662" y1="-18.9838" x2="-13.0035" y2="-25.3468" gradientUnits="userSpaceOnUse">
<stop stop-color="white" stop-opacity="0"/>
<stop offset="0.513119" stop-color="white"/>
<stop offset="1" stop-color="white" stop-opacity="0"/>
</linearGradient>
<linearGradient id="paint1_linear_280_446" x1="-34.4662" y1="-18.9838" x2="-13.0035" y2="-25.3468" gradientUnits="userSpaceOnUse">
<stop stop-color="white" stop-opacity="0"/>
<stop offset="0.513119" stop-color="white"/>
<stop offset="1" stop-color="white" stop-opacity="0"/>
</linearGradient>
<linearGradient id="paint2_linear_280_446" x1="-34.4662" y1="-18.9838" x2="-13.0035" y2="-25.3468" gradientUnits="userSpaceOnUse">
<stop stop-color="white" stop-opacity="0"/>
<stop offset="0.513119" stop-color="white"/>
<stop offset="1" stop-color="white" stop-opacity="0"/>
</linearGradient>
<linearGradient id="paint3_linear_280_446" x1="-34.4662" y1="-18.9838" x2="-13.0035" y2="-25.3468" gradientUnits="userSpaceOnUse">
<stop stop-color="white" stop-opacity="0"/>
<stop offset="0.513119" stop-color="white"/>
<stop offset="1" stop-color="white" stop-opacity="0"/>
</linearGradient>
<linearGradient id="paint4_linear_280_446" x1="-34.4662" y1="-18.9838" x2="-13.0035" y2="-25.3468" gradientUnits="userSpaceOnUse">
<stop stop-color="white" stop-opacity="0"/>
<stop offset="0.513119" stop-color="white"/>
<stop offset="1" stop-color="white" stop-opacity="0"/>
</linearGradient>
<linearGradient id="paint5_linear_280_446" x1="-34.4662" y1="-18.9838" x2="-13.0035" y2="-25.3468" gradientUnits="userSpaceOnUse">
<stop stop-color="white" stop-opacity="0"/>
<stop offset="0.513119" stop-color="white"/>
<stop offset="1" stop-color="white" stop-opacity="0"/>
</linearGradient>
<linearGradient id="paint6_linear_280_446" x1="-34.4662" y1="-18.9838" x2="-13.0035" y2="-25.3468" gradientUnits="userSpaceOnUse">
<stop stop-color="white" stop-opacity="0"/>
<stop offset="0.513119" stop-color="white"/>
<stop offset="1" stop-color="white" stop-opacity="0"/>
</linearGradient>
<linearGradient id="paint7_linear_280_446" x1="-34.4662" y1="-18.9838" x2="-13.0035" y2="-25.3468" gradientUnits="userSpaceOnUse">
<stop stop-color="white" stop-opacity="0"/>
<stop offset="0.513119" stop-color="white"/>
<stop offset="1" stop-color="white" stop-opacity="0"/>
</linearGradient>
<linearGradient id="paint8_linear_280_446" x1="-34.4662" y1="-18.9838" x2="-13.0035" y2="-25.3468" gradientUnits="userSpaceOnUse">
<stop stop-color="white" stop-opacity="0"/>
<stop offset="0.513119" stop-color="white"/>
<stop offset="1" stop-color="white" stop-opacity="0"/>
</linearGradient>
<linearGradient id="paint9_linear_280_446" x1="-34.4662" y1="-18.9838" x2="-13.0035" y2="-25.3468" gradientUnits="userSpaceOnUse">
<stop stop-color="white" stop-opacity="0"/>
<stop offset="0.513119" stop-color="white"/>
<stop offset="1" stop-color="white" stop-opacity="0"/>
</linearGradient>
<linearGradient id="paint10_linear_280_446" x1="-34.4662" y1="-18.9838" x2="-13.0035" y2="-25.3468" gradientUnits="userSpaceOnUse">
<stop stop-color="white" stop-opacity="0"/>
<stop offset="0.513119" stop-color="white"/>
<stop offset="1" stop-color="white" stop-opacity="0"/>
</linearGradient>
<linearGradient id="paint11_linear_280_446" x1="-34.4662" y1="-18.9838" x2="-13.0035" y2="-25.3468" gradientUnits="userSpaceOnUse">
<stop stop-color="white" stop-opacity="0"/>
<stop offset="0.513119" stop-color="white"/>
<stop offset="1" stop-color="white" stop-opacity="0"/>
</linearGradient>
</defs>
</svg>
