<svg width="151" height="32" viewBox="0 0 151 32" fill="none" xmlns="http://www.w3.org/2000/svg">
<g id="primevue-text-white">
<path id="VUE" fill-rule="evenodd" clip-rule="evenodd" d="M105.004 31.25C105.473 31.25 105.746 31.0156 105.863 30.5469L112.465 0.859375C112.582 0.3125 112.348 0 111.762 0H108.051C107.582 0 107.309 0.234375 107.191 0.703125L103.051 21.6406L98.9492 0.703125C98.832 0.234375 98.5586 0 98.0898 0H94.3789C93.793 0 93.5586 0.3125 93.6758 0.859375L100.238 30.5469C100.355 31.0156 100.629 31.25 101.098 31.25H105.004ZM125.629 31.25C129.301 31.25 131.254 29.2969 131.254 25.625V0.78125C131.254 0.351562 130.902 0 130.473 0H126.879C126.449 0 126.098 0.351562 126.098 0.78125V24.5312C126.098 25.5859 125.551 26.0938 124.535 26.0938H122.504C121.488 26.0938 120.941 25.5859 120.941 24.5312V0.78125C120.941 0.351562 120.59 0 120.16 0H116.41C115.98 0 115.629 0.351562 115.629 0.78125V25.625C115.629 29.2969 117.582 31.25 121.254 31.25H125.629ZM150.746 30.625C150.746 31.0156 150.59 31.25 150.121 31.25H135.746C135.395 31.25 135.16 31.0156 135.16 30.625V0.625C135.16 0.234375 135.395 0 135.746 0H150.121C150.59 0 150.746 0.234375 150.746 0.625V4.53125C150.746 4.92188 150.59 5.19531 150.121 5.19531H140.355V13.0078H147.816C148.207 13.0078 148.441 13.2422 148.441 13.6719V17.5391C148.441 17.9688 148.207 18.2031 147.816 18.2031H140.355V26.0938H150.121C150.59 26.0938 150.746 26.2891 150.746 26.7188V30.625Z" fill="#41B883"/>
<path id="PRIME" fill-rule="evenodd" clip-rule="evenodd" d="M5.04297 31.25C5.47266 31.25 5.66797 31.0156 5.66797 30.625V20.7812H10.3555C14.0273 20.7812 15.9805 18.7891 15.9805 15.1562V5.625C15.9805 1.95312 14.0273 0 10.3555 0H0.980469C0.589844 0 0.355469 0.234375 0.355469 0.625V30.625C0.355469 31.0156 0.589844 31.25 0.980469 31.25H5.04297ZM9.10547 15.625H5.66797V5.15625H9.10547C10.1602 5.15625 10.668 5.70312 10.668 6.71875V14.0625C10.668 15.0391 10.1602 15.625 9.10547 15.625ZM24.8086 30.625C24.8086 31.0156 24.5742 31.25 24.1836 31.25H20.1211C19.7305 31.25 19.4961 31.0156 19.4961 30.625V0.625C19.4961 0.234375 19.7305 0 20.1211 0H29.9258C33.5977 0 35.5508 1.95312 35.5508 5.625V15.1562C35.5508 17.7734 34.5742 19.4922 32.6992 20.3125L35.3945 30.5469C35.5117 31.0156 35.2773 31.25 34.8477 31.25H30.7852C30.3945 31.25 30.1992 31.0547 30.1211 30.7031L27.5039 20.7812H24.8086V30.625ZM28.6758 15.625H24.8086V5.15625H28.6758C29.6914 5.15625 30.2383 5.70312 30.2383 6.71875V14.0625C30.2383 15.0781 29.6914 15.625 28.6758 15.625ZM44.7695 30.625C44.7695 31.0156 44.5352 31.25 44.1445 31.25H40.082C39.6523 31.25 39.457 31.0156 39.457 30.625V0.625C39.457 0.234375 39.6523 0 40.082 0H44.1445C44.5352 0 44.7695 0.234375 44.7695 0.625V30.625ZM53.0508 31.25C53.5586 31.25 53.832 30.9766 53.832 30.4688V12.8906H54.1055L57.9727 30.5469C58.0898 31.0156 58.3633 31.25 58.832 31.25H60.7461C61.2148 31.25 61.4883 31.0156 61.6055 30.5469L65.4727 12.8906H65.7461V30.4688C65.7461 30.9766 66.0195 31.25 66.5273 31.25H70.1602C70.668 31.25 70.9414 30.9766 70.9414 30.4688V0.78125C70.9414 0.273438 70.668 0 70.1602 0H65.0039C64.5352 0 64.2617 0.234375 64.1445 0.703125L59.8086 20.1562L55.4727 0.703125C55.3555 0.234375 55.082 0 54.6133 0H49.457C48.9492 0 48.6758 0.273438 48.6758 0.78125V30.4688C48.6758 30.9766 48.9492 31.25 49.457 31.25H53.0508ZM90.4336 30.625C90.4336 31.0156 90.2773 31.25 89.8086 31.25H75.4336C75.082 31.25 74.8477 31.0156 74.8477 30.625V0.625C74.8477 0.234375 75.082 0 75.4336 0H89.8086C90.2773 0 90.4336 0.234375 90.4336 0.625V4.53125C90.4336 4.92188 90.2773 5.19531 89.8086 5.19531H80.043V13.0078H87.5039C87.8945 13.0078 88.1289 13.2422 88.1289 13.6719V17.5391C88.1289 17.9688 87.8945 18.2031 87.5039 18.2031H80.043V26.0938H89.8086C90.2773 26.0938 90.4336 26.2891 90.4336 26.7188V30.625Z" fill="white"/>
</g>
</svg>
