<svg width="174" height="174" viewBox="0 0 174 174" fill="none" xmlns="http://www.w3.org/2000/svg">
<g id="Vector" style="mix-blend-mode:color-dodge">
<path d="M58.2013 139.97C58.2013 140.73 57.4403 141.274 56.3532 141.274C55.266 141.274 54.3963 141.274 54.3963 139.97C54.3963 138.666 55.266 138.666 56.2444 138.666C57.2229 138.666 58.2013 139.209 58.2013 139.97ZM47.33 138.34C47.33 139.1 47.33 139.97 48.852 140.187C49.2413 140.374 49.6889 140.399 50.0965 140.256C50.5041 140.113 50.8385 139.815 51.0262 139.426C51.0262 138.666 51.0262 137.905 49.5043 137.579C47.9823 137.253 47.5475 137.579 47.33 138.34ZM62.7672 137.796C61.7888 137.796 61.1365 138.666 61.2452 139.535C61.3539 140.404 62.2236 140.73 63.3108 140.513C64.3979 140.296 64.9414 139.535 64.8327 138.774C64.724 138.014 63.8543 137.688 62.7672 137.796ZM85.9229 0.0068349C74.4577 -0.101026 63.0889 2.10752 52.4986 6.49995C41.9084 10.8924 32.3151 17.3781 24.2943 25.568C16.2736 33.7579 9.99081 43.4831 5.82297 54.16C1.65513 64.8369 -0.311834 76.2454 0.0401138 87.7009C-0.263354 106.466 5.30428 124.858 15.9654 140.307C26.6265 155.757 41.8487 167.492 59.5058 173.874C63.963 174.634 65.5937 171.809 65.5937 169.527C65.5937 167.245 65.5937 154.966 65.5937 147.794C65.5937 147.794 41.0247 153.227 35.8065 136.927C35.8065 136.927 31.8929 126.06 26.1311 123.778C26.1311 123.778 18.0864 118.128 26.6747 118.236C29.4875 118.615 32.1723 119.648 34.5134 121.253C36.8546 122.857 38.7868 124.987 40.155 127.473C41.2925 129.702 42.8736 131.674 44.8012 133.27C46.7289 134.866 48.9625 136.052 51.365 136.754C53.7674 137.456 56.2881 137.66 58.7722 137.353C61.2564 137.047 63.6517 136.236 65.8111 134.971C66.2226 130.434 68.1798 126.176 71.3555 122.909C51.7872 120.627 32.0016 117.802 32.0016 83.1369C31.7938 79.2208 32.4231 75.3055 33.8478 71.6517C35.2724 67.9979 37.4597 64.6895 40.2637 61.9468C37.6182 53.9922 37.9269 45.3513 41.1334 37.6055C48.5259 35.2148 65.3763 47.2769 65.3763 47.2769C79.7717 43.2185 95.0095 43.2185 109.405 47.2769C109.405 47.2769 126.255 35.2148 133.648 37.6055C136.924 45.336 137.233 54.0024 134.517 61.9468C137.42 64.6517 139.723 67.9352 141.277 71.5852C142.832 75.2352 143.603 79.1705 143.541 83.1369C143.541 117.91 122.885 120.627 103.317 122.909C105.284 125.114 106.78 127.697 107.715 130.499C108.649 133.302 109.002 136.265 108.753 139.209C108.753 151.38 108.753 166.376 108.753 169.31C108.746 170.043 108.916 170.768 109.248 171.422C109.581 172.076 110.067 172.641 110.664 173.067C111.262 173.494 111.953 173.77 112.68 173.873C113.407 173.975 114.148 173.901 114.84 173.656C132.465 167.33 147.656 155.628 158.268 140.205C168.88 124.782 174.376 106.416 173.98 87.7009C174.082 76.1287 171.872 64.6527 167.479 53.9456C163.086 43.2386 156.598 33.5161 148.396 25.3482C140.195 17.1804 130.444 10.7316 119.716 6.38005C108.988 2.02848 97.4995 -0.138273 85.9229 0.0068349ZM34.1758 123.996C34.1758 123.996 34.1758 125.191 34.1758 125.843C34.297 125.964 34.441 126.061 34.5996 126.127C34.7582 126.193 34.9282 126.226 35.0999 126.226C35.2716 126.226 35.4416 126.193 35.6002 126.127C35.7587 126.061 35.9027 125.964 36.0239 125.843C36.0239 125.843 36.0239 124.648 36.0239 123.887C36.0239 123.126 34.6107 123.561 34.1758 123.996ZM30.3709 121.062C30.3709 121.062 30.3709 122.148 31.1319 122.474C31.2236 122.588 31.3395 122.679 31.4712 122.742C31.6029 122.805 31.7469 122.837 31.8929 122.837C32.0388 122.837 32.1828 122.805 32.3145 122.742C32.4462 122.679 32.5621 122.588 32.6538 122.474C32.6538 122.474 32.6538 121.388 31.8929 121.062C31.1319 120.736 30.5883 120.736 30.3709 121.062ZM41.2421 133.884C41.2421 133.884 41.2421 135.406 41.2421 136.166C41.2421 136.927 43.0902 137.036 43.5251 136.166C43.9599 135.297 43.5251 134.645 43.5251 133.884C43.5251 133.124 42.1118 133.341 41.677 133.884H41.2421ZM37.2198 128.56C37.2198 128.56 37.2198 129.864 37.2198 130.733C37.2198 131.602 38.7417 131.928 39.2853 131.602C39.5606 131.286 39.7123 130.881 39.7123 130.461C39.7123 130.042 39.5606 129.637 39.2853 129.32C38.7417 128.451 37.872 128.125 37.2198 128.56Z" fill="url(#paint0_linear_284_458)" fill-opacity="0.4"/>
</g>
<defs>
<linearGradient id="paint0_linear_284_458" x1="87" y1="-407.5" x2="87" y2="174" gradientUnits="userSpaceOnUse">
<stop stop-color="white"/>
<stop offset="1" stop-color="white" stop-opacity="0"/>
</linearGradient>
</defs>
</svg>
