<svg width="207" height="32" viewBox="0 0 207 32" fill="none" xmlns="http://www.w3.org/2000/svg">
<g id="Vector">
<path d="M35.11 2.68303C32.4258 1.43967 29.5669 0.523517 26.5553 0C26.1843 0.654397 25.7479 1.54874 25.4642 2.26858C22.278 1.78868 19.1136 1.78868 15.9929 2.26858C15.6873 1.54874 15.2509 0.654397 14.8799 0C11.8683 0.523517 9.00942 1.43967 6.32516 2.68303C0.912996 10.8412 -0.549163 18.803 0.171004 26.6339C3.77184 29.317 7.24174 30.9312 10.668 32C11.5191 30.8439 12.2611 29.6005 12.9158 28.3136C11.6719 27.8555 10.4934 27.2665 9.38042 26.5903C9.68594 26.3722 9.96964 26.1322 10.2533 25.9141C17.084 29.0988 24.4821 29.0988 31.2255 25.9141C31.5092 26.1541 31.7929 26.3722 32.0984 26.5903C30.9854 27.2665 29.7852 27.8337 28.5631 28.3136C29.2178 29.6005 29.9597 30.8439 30.8109 32C34.2371 30.9312 37.7288 29.317 41.3078 26.6339C42.1589 17.5378 39.8457 9.66326 35.1537 2.68303H35.11ZM13.8324 21.835C11.781 21.835 10.1006 19.9373 10.1006 17.6033C10.1006 15.2693 11.7373 13.3715 13.8324 13.3715C15.9274 13.3715 17.586 15.2693 17.5641 17.6033C17.5641 19.9155 15.9274 21.835 13.8324 21.835ZM27.6028 21.835C25.5514 21.835 23.8711 19.9373 23.8711 17.6033C23.8711 15.2693 25.5078 13.3715 27.6028 13.3715C29.6979 13.3715 31.3564 15.2693 31.3346 17.6033C31.3346 19.9155 29.6979 21.835 27.6028 21.835Z" fill="white" fill-opacity="0.7"/>
<path d="M35.11 2.68303C32.4258 1.43967 29.5669 0.523517 26.5553 0C26.1843 0.654397 25.7479 1.54874 25.4642 2.26858C22.278 1.78868 19.1136 1.78868 15.9929 2.26858C15.6873 1.54874 15.2509 0.654397 14.8799 0C11.8683 0.523517 9.00942 1.43967 6.32516 2.68303C0.912996 10.8412 -0.549163 18.803 0.171004 26.6339C3.77184 29.317 7.24174 30.9312 10.668 32C11.5191 30.8439 12.2611 29.6005 12.9158 28.3136C11.6719 27.8555 10.4934 27.2665 9.38042 26.5903C9.68594 26.3722 9.96964 26.1322 10.2533 25.9141C17.084 29.0988 24.4821 29.0988 31.2255 25.9141C31.5092 26.1541 31.7929 26.3722 32.0984 26.5903C30.9854 27.2665 29.7852 27.8337 28.5631 28.3136C29.2178 29.6005 29.9597 30.8439 30.8109 32C34.2371 30.9312 37.7288 29.317 41.3078 26.6339C42.1589 17.5378 39.8457 9.66326 35.1537 2.68303H35.11ZM13.8324 21.835C11.781 21.835 10.1006 19.9373 10.1006 17.6033C10.1006 15.2693 11.7373 13.3715 13.8324 13.3715C15.9274 13.3715 17.586 15.2693 17.5641 17.6033C17.5641 19.9155 15.9274 21.835 13.8324 21.835ZM27.6028 21.835C25.5514 21.835 23.8711 19.9373 23.8711 17.6033C23.8711 15.2693 25.5078 13.3715 27.6028 13.3715C29.6979 13.3715 31.3564 15.2693 31.3346 17.6033C31.3346 19.9155 29.6979 21.835 27.6028 21.835Z" fill="url(#paint0_linear_280_204)"/>
<path d="M60.7496 26.0814V4.96357H68.6688C70.2911 4.96357 71.6522 5.26604 72.7521 5.87098C73.8589 6.47592 74.6941 7.30771 75.2578 8.36635C75.8284 9.41812 76.1136 10.6142 76.1136 11.9547C76.1136 13.309 75.8284 14.512 75.2578 15.5637C74.6872 16.6155 73.8451 17.4439 72.7315 18.0488C71.6178 18.6469 70.2464 18.9459 68.6172 18.9459H63.3687V15.8009H68.1016C69.0503 15.8009 69.8271 15.6359 70.432 15.306C71.037 14.976 71.4838 14.5223 71.7725 13.9448C72.0681 13.3674 72.2159 12.704 72.2159 11.9547C72.2159 11.2054 72.0681 10.5455 71.7725 9.97493C71.4838 9.40437 71.0335 8.96098 70.4217 8.64476C69.8168 8.32167 69.0365 8.16012 68.081 8.16012H64.5751V26.0814H60.7496Z" fill="white" fill-opacity="0.7"/>
<path d="M60.7496 26.0814V4.96357H68.6688C70.2911 4.96357 71.6522 5.26604 72.7521 5.87098C73.8589 6.47592 74.6941 7.30771 75.2578 8.36635C75.8284 9.41812 76.1136 10.6142 76.1136 11.9547C76.1136 13.309 75.8284 14.512 75.2578 15.5637C74.6872 16.6155 73.8451 17.4439 72.7315 18.0488C71.6178 18.6469 70.2464 18.9459 68.6172 18.9459H63.3687V15.8009H68.1016C69.0503 15.8009 69.8271 15.6359 70.432 15.306C71.037 14.976 71.4838 14.5223 71.7725 13.9448C72.0681 13.3674 72.2159 12.704 72.2159 11.9547C72.2159 11.2054 72.0681 10.5455 71.7725 9.97493C71.4838 9.40437 71.0335 8.96098 70.4217 8.64476C69.8168 8.32167 69.0365 8.16012 68.081 8.16012H64.5751V26.0814H60.7496Z" fill="url(#paint1_linear_280_204)"/>
<path d="M79.2715 26.0814V10.243H82.8908V12.8828H83.0558C83.3445 11.9685 83.8395 11.2639 84.5407 10.7689C85.2487 10.2671 86.0564 10.0162 86.9639 10.0162C87.1701 10.0162 87.4004 10.0265 87.6547 10.0471C87.9159 10.0609 88.1325 10.0849 88.3043 10.1193V13.553C88.1462 13.498 87.8953 13.4499 87.5516 13.4086C87.2148 13.3605 86.8882 13.3365 86.572 13.3365C85.8915 13.3365 85.2796 13.4843 84.7366 13.7799C84.2004 14.0686 83.7776 14.4707 83.4683 14.9863C83.1589 15.5019 83.0043 16.0965 83.0043 16.7702V26.0814H79.2715Z" fill="white" fill-opacity="0.7"/>
<path d="M79.2715 26.0814V10.243H82.8908V12.8828H83.0558C83.3445 11.9685 83.8395 11.2639 84.5407 10.7689C85.2487 10.2671 86.0564 10.0162 86.9639 10.0162C87.1701 10.0162 87.4004 10.0265 87.6547 10.0471C87.9159 10.0609 88.1325 10.0849 88.3043 10.1193V13.553C88.1462 13.498 87.8953 13.4499 87.5516 13.4086C87.2148 13.3605 86.8882 13.3365 86.572 13.3365C85.8915 13.3365 85.2796 13.4843 84.7366 13.7799C84.2004 14.0686 83.7776 14.4707 83.4683 14.9863C83.1589 15.5019 83.0043 16.0965 83.0043 16.7702V26.0814H79.2715Z" fill="url(#paint2_linear_280_204)"/>
<path d="M90.7843 26.0814V10.243H94.517V26.0814H90.7843ZM92.6609 7.99514C92.0697 7.99514 91.561 7.79922 91.1348 7.40738C90.7086 7.00867 90.4955 6.53091 90.4955 5.97409C90.4955 5.4104 90.7086 4.93264 91.1348 4.5408C91.561 4.14209 92.0697 3.94274 92.6609 3.94274C93.259 3.94274 93.7677 4.14209 94.187 4.5408C94.6132 4.93264 94.8263 5.4104 94.8263 5.97409C94.8263 6.53091 94.6132 7.00867 94.187 7.40738C93.7677 7.79922 93.259 7.99514 92.6609 7.99514Z" fill="white" fill-opacity="0.7"/>
<path d="M90.7843 26.0814V10.243H94.517V26.0814H90.7843ZM92.6609 7.99514C92.0697 7.99514 91.561 7.79922 91.1348 7.40738C90.7086 7.00867 90.4955 6.53091 90.4955 5.97409C90.4955 5.4104 90.7086 4.93264 91.1348 4.5408C91.561 4.14209 92.0697 3.94274 92.6609 3.94274C93.259 3.94274 93.7677 4.14209 94.187 4.5408C94.6132 4.93264 94.8263 5.4104 94.8263 5.97409C94.8263 6.53091 94.6132 7.00867 94.187 7.40738C93.7677 7.79922 93.259 7.99514 92.6609 7.99514Z" fill="url(#paint3_linear_280_204)"/>
<path d="M98.3554 26.0814V10.243H101.923V12.9343H102.109C102.439 12.0269 102.985 11.3189 103.748 10.8102C104.511 10.2946 105.422 10.0368 106.481 10.0368C107.553 10.0368 108.457 10.298 109.193 10.8205C109.935 11.336 110.458 12.0407 110.76 12.9343H110.925C111.276 12.0544 111.867 11.3532 112.699 10.8308C113.537 10.3015 114.531 10.0368 115.679 10.0368C117.136 10.0368 118.325 10.4974 119.246 11.4185C120.168 12.3397 120.628 13.6836 120.628 15.4503V26.0814H116.885V16.0278C116.885 15.0447 116.624 14.3264 116.101 13.8727C115.579 13.4121 114.94 13.1818 114.184 13.1818C113.283 13.1818 112.578 13.4636 112.07 14.0273C111.568 14.5842 111.317 15.3094 111.317 16.203V26.0814H107.656V15.8731C107.656 15.055 107.409 14.402 106.914 13.9139C106.426 13.4258 105.787 13.1818 104.996 13.1818C104.46 13.1818 103.972 13.3193 103.532 13.5943C103.092 13.8624 102.741 14.2439 102.48 14.7388C102.219 15.2269 102.088 15.7975 102.088 16.4505V26.0814H98.3554Z" fill="white" fill-opacity="0.7"/>
<path d="M98.3554 26.0814V10.243H101.923V12.9343H102.109C102.439 12.0269 102.985 11.3189 103.748 10.8102C104.511 10.2946 105.422 10.0368 106.481 10.0368C107.553 10.0368 108.457 10.298 109.193 10.8205C109.935 11.336 110.458 12.0407 110.76 12.9343H110.925C111.276 12.0544 111.867 11.3532 112.699 10.8308C113.537 10.3015 114.531 10.0368 115.679 10.0368C117.136 10.0368 118.325 10.4974 119.246 11.4185C120.168 12.3397 120.628 13.6836 120.628 15.4503V26.0814H116.885V16.0278C116.885 15.0447 116.624 14.3264 116.101 13.8727C115.579 13.4121 114.94 13.1818 114.184 13.1818C113.283 13.1818 112.578 13.4636 112.07 14.0273C111.568 14.5842 111.317 15.3094 111.317 16.203V26.0814H107.656V15.8731C107.656 15.055 107.409 14.402 106.914 13.9139C106.426 13.4258 105.787 13.1818 104.996 13.1818C104.46 13.1818 103.972 13.3193 103.532 13.5943C103.092 13.8624 102.741 14.2439 102.48 14.7388C102.219 15.2269 102.088 15.7975 102.088 16.4505V26.0814H98.3554Z" fill="url(#paint4_linear_280_204)"/>
<path d="M131.427 26.3908C129.839 26.3908 128.467 26.0608 127.313 25.4009C126.165 24.7341 125.281 23.7923 124.663 22.5755C124.044 21.3519 123.734 19.9117 123.734 18.255C123.734 16.6258 124.044 15.196 124.663 13.9655C125.288 12.7281 126.161 11.7657 127.282 11.0783C128.402 10.384 129.719 10.0368 131.231 10.0368C132.207 10.0368 133.128 10.1949 133.994 10.5111C134.867 10.8205 135.637 11.3017 136.304 11.9547C136.978 12.6078 137.507 13.4396 137.892 14.4501C138.277 15.4538 138.47 16.6499 138.47 18.0385V19.1831H125.487V16.6671H134.891C134.885 15.9521 134.73 15.3163 134.427 14.7594C134.125 14.1958 133.702 13.7524 133.159 13.4293C132.623 13.1062 131.997 12.9446 131.282 12.9446C130.519 12.9446 129.849 13.1302 129.272 13.5014C128.694 13.8658 128.244 14.347 127.921 14.9451C127.605 15.5362 127.443 16.1859 127.436 16.8939V19.0903C127.436 20.0114 127.605 20.802 127.942 21.4619C128.278 22.1149 128.749 22.6168 129.354 22.9674C129.959 23.3111 130.667 23.4829 131.478 23.4829C132.021 23.4829 132.513 23.4073 132.953 23.2561C133.393 23.098 133.774 22.8677 134.097 22.5652C134.421 22.2627 134.665 21.8881 134.83 21.4413L138.315 21.8331C138.095 22.7543 137.676 23.5585 137.057 24.246C136.445 24.9265 135.661 25.4559 134.706 25.8339C133.75 26.2052 132.657 26.3908 131.427 26.3908Z" fill="white" fill-opacity="0.7"/>
<path d="M131.427 26.3908C129.839 26.3908 128.467 26.0608 127.313 25.4009C126.165 24.7341 125.281 23.7923 124.663 22.5755C124.044 21.3519 123.734 19.9117 123.734 18.255C123.734 16.6258 124.044 15.196 124.663 13.9655C125.288 12.7281 126.161 11.7657 127.282 11.0783C128.402 10.384 129.719 10.0368 131.231 10.0368C132.207 10.0368 133.128 10.1949 133.994 10.5111C134.867 10.8205 135.637 11.3017 136.304 11.9547C136.978 12.6078 137.507 13.4396 137.892 14.4501C138.277 15.4538 138.47 16.6499 138.47 18.0385V19.1831H125.487V16.6671H134.891C134.885 15.9521 134.73 15.3163 134.427 14.7594C134.125 14.1958 133.702 13.7524 133.159 13.4293C132.623 13.1062 131.997 12.9446 131.282 12.9446C130.519 12.9446 129.849 13.1302 129.272 13.5014C128.694 13.8658 128.244 14.347 127.921 14.9451C127.605 15.5362 127.443 16.1859 127.436 16.8939V19.0903C127.436 20.0114 127.605 20.802 127.942 21.4619C128.278 22.1149 128.749 22.6168 129.354 22.9674C129.959 23.3111 130.667 23.4829 131.478 23.4829C132.021 23.4829 132.513 23.4073 132.953 23.2561C133.393 23.098 133.774 22.8677 134.097 22.5652C134.421 22.2627 134.665 21.8881 134.83 21.4413L138.315 21.8331C138.095 22.7543 137.676 23.5585 137.057 24.246C136.445 24.9265 135.661 25.4559 134.706 25.8339C133.75 26.2052 132.657 26.3908 131.427 26.3908Z" fill="url(#paint5_linear_280_204)"/>
<path d="M141.792 26.0814V4.96357H145.618V22.8746H154.919V26.0814H141.792Z" fill="white" fill-opacity="0.7"/>
<path d="M141.792 26.0814V4.96357H145.618V22.8746H154.919V26.0814H141.792Z" fill="url(#paint6_linear_280_204)"/>
<path d="M162.632 26.4011C161.628 26.4011 160.724 26.2223 159.92 25.8649C159.122 25.5005 158.49 24.9643 158.023 24.2563C157.562 23.5482 157.332 22.6752 157.332 21.6372C157.332 20.7435 157.497 20.0045 157.827 19.4202C158.157 18.8359 158.607 18.3685 159.178 18.0179C159.748 17.6673 160.391 17.4026 161.106 17.2239C161.828 17.0383 162.573 16.9042 163.343 16.8217C164.271 16.7255 165.024 16.6396 165.602 16.5639C166.179 16.4815 166.598 16.3577 166.86 16.1927C167.128 16.0209 167.262 15.7562 167.262 15.3988V15.3369C167.262 14.5601 167.031 13.9586 166.571 13.5324C166.11 13.1062 165.447 12.8931 164.581 12.8931C163.666 12.8931 162.941 13.0924 162.405 13.4911C161.876 13.8898 161.518 14.3607 161.333 14.9038L157.847 14.4089C158.122 13.4465 158.576 12.6422 159.208 11.996C159.841 11.3429 160.614 10.8548 161.529 10.5318C162.443 10.2018 163.453 10.0368 164.56 10.0368C165.323 10.0368 166.083 10.1262 166.839 10.3049C167.595 10.4836 168.286 10.7792 168.912 11.1917C169.537 11.5973 170.039 12.1507 170.417 12.8518C170.802 13.553 170.994 14.4295 170.994 15.4812V26.0814H167.406V23.9057H167.282C167.055 24.3457 166.736 24.7581 166.323 25.1431C165.918 25.5212 165.406 25.8271 164.787 26.0608C164.175 26.2876 163.457 26.4011 162.632 26.4011ZM163.601 23.6582C164.35 23.6582 165 23.5104 165.55 23.2148C166.1 22.9124 166.523 22.5137 166.818 22.0187C167.121 21.5238 167.272 20.9841 167.272 20.3998V18.5334C167.155 18.6297 166.956 18.719 166.674 18.8015C166.399 18.884 166.09 18.9562 165.746 19.0181C165.402 19.0799 165.062 19.1349 164.725 19.1831C164.388 19.2312 164.096 19.2724 163.849 19.3068C163.292 19.3824 162.793 19.5062 162.353 19.678C161.913 19.8499 161.566 20.0905 161.312 20.3998C161.058 20.7023 160.93 21.0941 160.93 21.5753C160.93 22.2627 161.181 22.7818 161.683 23.1323C162.185 23.4829 162.824 23.6582 163.601 23.6582Z" fill="white" fill-opacity="0.7"/>
<path d="M162.632 26.4011C161.628 26.4011 160.724 26.2223 159.92 25.8649C159.122 25.5005 158.49 24.9643 158.023 24.2563C157.562 23.5482 157.332 22.6752 157.332 21.6372C157.332 20.7435 157.497 20.0045 157.827 19.4202C158.157 18.8359 158.607 18.3685 159.178 18.0179C159.748 17.6673 160.391 17.4026 161.106 17.2239C161.828 17.0383 162.573 16.9042 163.343 16.8217C164.271 16.7255 165.024 16.6396 165.602 16.5639C166.179 16.4815 166.598 16.3577 166.86 16.1927C167.128 16.0209 167.262 15.7562 167.262 15.3988V15.3369C167.262 14.5601 167.031 13.9586 166.571 13.5324C166.11 13.1062 165.447 12.8931 164.581 12.8931C163.666 12.8931 162.941 13.0924 162.405 13.4911C161.876 13.8898 161.518 14.3607 161.333 14.9038L157.847 14.4089C158.122 13.4465 158.576 12.6422 159.208 11.996C159.841 11.3429 160.614 10.8548 161.529 10.5318C162.443 10.2018 163.453 10.0368 164.56 10.0368C165.323 10.0368 166.083 10.1262 166.839 10.3049C167.595 10.4836 168.286 10.7792 168.912 11.1917C169.537 11.5973 170.039 12.1507 170.417 12.8518C170.802 13.553 170.994 14.4295 170.994 15.4812V26.0814H167.406V23.9057H167.282C167.055 24.3457 166.736 24.7581 166.323 25.1431C165.918 25.5212 165.406 25.8271 164.787 26.0608C164.175 26.2876 163.457 26.4011 162.632 26.4011ZM163.601 23.6582C164.35 23.6582 165 23.5104 165.55 23.2148C166.1 22.9124 166.523 22.5137 166.818 22.0187C167.121 21.5238 167.272 20.9841 167.272 20.3998V18.5334C167.155 18.6297 166.956 18.719 166.674 18.8015C166.399 18.884 166.09 18.9562 165.746 19.0181C165.402 19.0799 165.062 19.1349 164.725 19.1831C164.388 19.2312 164.096 19.2724 163.849 19.3068C163.292 19.3824 162.793 19.5062 162.353 19.678C161.913 19.8499 161.566 20.0905 161.312 20.3998C161.058 20.7023 160.93 21.0941 160.93 21.5753C160.93 22.2627 161.181 22.7818 161.683 23.1323C162.185 23.4829 162.824 23.6582 163.601 23.6582Z" fill="url(#paint7_linear_280_204)"/>
<path d="M178.481 16.8011V26.0814H174.748V10.243H178.316V12.9343H178.501C178.865 12.0475 179.446 11.3429 180.244 10.8205C181.048 10.298 182.041 10.0368 183.224 10.0368C184.317 10.0368 185.269 10.2705 186.08 10.738C186.898 11.2054 187.531 11.8826 187.977 12.7693C188.431 13.6561 188.654 14.7319 188.648 15.9968V26.0814H184.915V16.5743C184.915 15.5156 184.64 14.6873 184.09 14.0892C183.547 13.4911 182.794 13.1921 181.832 13.1921C181.179 13.1921 180.598 13.3365 180.089 13.6252C179.587 13.907 179.192 14.3161 178.903 14.8523C178.621 15.3884 178.481 16.0381 178.481 16.8011Z" fill="white" fill-opacity="0.7"/>
<path d="M178.481 16.8011V26.0814H174.748V10.243H178.316V12.9343H178.501C178.865 12.0475 179.446 11.3429 180.244 10.8205C181.048 10.298 182.041 10.0368 183.224 10.0368C184.317 10.0368 185.269 10.2705 186.08 10.738C186.898 11.2054 187.531 11.8826 187.977 12.7693C188.431 13.6561 188.654 14.7319 188.648 15.9968V26.0814H184.915V16.5743C184.915 15.5156 184.64 14.6873 184.09 14.0892C183.547 13.4911 182.794 13.1921 181.832 13.1921C181.179 13.1921 180.598 13.3365 180.089 13.6252C179.587 13.907 179.192 14.3161 178.903 14.8523C178.621 15.3884 178.481 16.0381 178.481 16.8011Z" fill="url(#paint8_linear_280_204)"/>
<path d="M198.32 26.3598C197.076 26.3598 195.962 26.0402 194.979 25.4009C193.996 24.7616 193.219 23.8335 192.648 22.6168C192.078 21.4 191.793 19.922 191.793 18.1828C191.793 16.423 192.081 14.9382 192.659 13.7283C193.243 12.5116 194.03 11.5938 195.02 10.9751C196.01 10.3496 197.113 10.0368 198.33 10.0368C199.258 10.0368 200.021 10.1949 200.619 10.5111C201.217 10.8205 201.692 11.1951 202.042 11.6351C202.393 12.0682 202.664 12.4772 202.857 12.8621H203.011V4.96357H206.755V26.0814H203.084V23.586H202.857C202.664 23.971 202.386 24.38 202.022 24.8131C201.657 25.2393 201.176 25.6037 200.578 25.9061C199.98 26.2086 199.227 26.3598 198.32 26.3598ZM199.361 23.2973C200.152 23.2973 200.825 23.0842 201.382 22.658C201.939 22.2249 202.362 21.6234 202.651 20.8535C202.939 20.0836 203.084 19.1865 203.084 18.1622C203.084 17.138 202.939 16.2477 202.651 15.4916C202.369 14.7354 201.949 14.1476 201.393 13.7283C200.843 13.309 200.166 13.0993 199.361 13.0993C198.529 13.0993 197.835 13.3158 197.278 13.7489C196.721 14.182 196.302 14.7801 196.02 15.5431C195.738 16.3062 195.598 17.1792 195.598 18.1622C195.598 19.1521 195.738 20.0355 196.02 20.8123C196.309 21.5822 196.732 22.1906 197.289 22.6374C197.852 23.0773 198.543 23.2973 199.361 23.2973Z" fill="white" fill-opacity="0.7"/>
<path d="M198.32 26.3598C197.076 26.3598 195.962 26.0402 194.979 25.4009C193.996 24.7616 193.219 23.8335 192.648 22.6168C192.078 21.4 191.793 19.922 191.793 18.1828C191.793 16.423 192.081 14.9382 192.659 13.7283C193.243 12.5116 194.03 11.5938 195.02 10.9751C196.01 10.3496 197.113 10.0368 198.33 10.0368C199.258 10.0368 200.021 10.1949 200.619 10.5111C201.217 10.8205 201.692 11.1951 202.042 11.6351C202.393 12.0682 202.664 12.4772 202.857 12.8621H203.011V4.96357H206.755V26.0814H203.084V23.586H202.857C202.664 23.971 202.386 24.38 202.022 24.8131C201.657 25.2393 201.176 25.6037 200.578 25.9061C199.98 26.2086 199.227 26.3598 198.32 26.3598ZM199.361 23.2973C200.152 23.2973 200.825 23.0842 201.382 22.658C201.939 22.2249 202.362 21.6234 202.651 20.8535C202.939 20.0836 203.084 19.1865 203.084 18.1622C203.084 17.138 202.939 16.2477 202.651 15.4916C202.369 14.7354 201.949 14.1476 201.393 13.7283C200.843 13.309 200.166 13.0993 199.361 13.0993C198.529 13.0993 197.835 13.3158 197.278 13.7489C196.721 14.182 196.302 14.7801 196.02 15.5431C195.738 16.3062 195.598 17.1792 195.598 18.1622C195.598 19.1521 195.738 20.0355 196.02 20.8123C196.309 21.5822 196.732 22.1906 197.289 22.6374C197.852 23.0773 198.543 23.2973 199.361 23.2973Z" fill="url(#paint9_linear_280_204)"/>
</g>
<defs>
<linearGradient id="paint0_linear_280_204" x1="-34" y1="-19.5" x2="-12.5416" y2="-25.5117" gradientUnits="userSpaceOnUse">
<stop stop-color="white" stop-opacity="0"/>
<stop offset="0.513119" stop-color="white"/>
<stop offset="1" stop-color="white" stop-opacity="0"/>
</linearGradient>
<linearGradient id="paint1_linear_280_204" x1="-34" y1="-19.5" x2="-12.5416" y2="-25.5117" gradientUnits="userSpaceOnUse">
<stop stop-color="white" stop-opacity="0"/>
<stop offset="0.513119" stop-color="white"/>
<stop offset="1" stop-color="white" stop-opacity="0"/>
</linearGradient>
<linearGradient id="paint2_linear_280_204" x1="-34" y1="-19.5" x2="-12.5416" y2="-25.5117" gradientUnits="userSpaceOnUse">
<stop stop-color="white" stop-opacity="0"/>
<stop offset="0.513119" stop-color="white"/>
<stop offset="1" stop-color="white" stop-opacity="0"/>
</linearGradient>
<linearGradient id="paint3_linear_280_204" x1="-34" y1="-19.5" x2="-12.5416" y2="-25.5117" gradientUnits="userSpaceOnUse">
<stop stop-color="white" stop-opacity="0"/>
<stop offset="0.513119" stop-color="white"/>
<stop offset="1" stop-color="white" stop-opacity="0"/>
</linearGradient>
<linearGradient id="paint4_linear_280_204" x1="-34" y1="-19.5" x2="-12.5416" y2="-25.5117" gradientUnits="userSpaceOnUse">
<stop stop-color="white" stop-opacity="0"/>
<stop offset="0.513119" stop-color="white"/>
<stop offset="1" stop-color="white" stop-opacity="0"/>
</linearGradient>
<linearGradient id="paint5_linear_280_204" x1="-34" y1="-19.5" x2="-12.5416" y2="-25.5117" gradientUnits="userSpaceOnUse">
<stop stop-color="white" stop-opacity="0"/>
<stop offset="0.513119" stop-color="white"/>
<stop offset="1" stop-color="white" stop-opacity="0"/>
</linearGradient>
<linearGradient id="paint6_linear_280_204" x1="-34" y1="-19.5" x2="-12.5416" y2="-25.5117" gradientUnits="userSpaceOnUse">
<stop stop-color="white" stop-opacity="0"/>
<stop offset="0.513119" stop-color="white"/>
<stop offset="1" stop-color="white" stop-opacity="0"/>
</linearGradient>
<linearGradient id="paint7_linear_280_204" x1="-34" y1="-19.5" x2="-12.5416" y2="-25.5117" gradientUnits="userSpaceOnUse">
<stop stop-color="white" stop-opacity="0"/>
<stop offset="0.513119" stop-color="white"/>
<stop offset="1" stop-color="white" stop-opacity="0"/>
</linearGradient>
<linearGradient id="paint8_linear_280_204" x1="-34" y1="-19.5" x2="-12.5416" y2="-25.5117" gradientUnits="userSpaceOnUse">
<stop stop-color="white" stop-opacity="0"/>
<stop offset="0.513119" stop-color="white"/>
<stop offset="1" stop-color="white" stop-opacity="0"/>
</linearGradient>
<linearGradient id="paint9_linear_280_204" x1="-34" y1="-19.5" x2="-12.5416" y2="-25.5117" gradientUnits="userSpaceOnUse">
<stop stop-color="white" stop-opacity="0"/>
<stop offset="0.513119" stop-color="white"/>
<stop offset="1" stop-color="white" stop-opacity="0"/>
</linearGradient>
</defs>
</svg>
