<svg width="44" height="50" viewBox="0 0 44 50" fill="none" xmlns="http://www.w3.org/2000/svg">
<g id="PrimeVue">
<path id="Vector" d="M32.3375 22.5625L28.95 21.8125L31.5875 25.575V37.225L40.6125 29.7V16.9125L36.475 18.4125L32.3375 22.55V22.5625ZM31.5875 44.3625L36.475 39.475V34.5875L31.5875 38.725V44.3625ZM37.625 6.4875L43.6125 6.0125L41.35 15.4125L30.125 19.5875L37.6 6.5L37.625 6.4875ZM7.15 18.425L3.0125 16.925V29.7125L12.0375 37.2375V25.5875L14.675 21.825L11.2875 22.575L7.15 18.4375V18.425ZM12.0375 38.725L7.15 34.5875V39.475L12.0375 44.3625V38.725ZM6 6.5L13.475 19.5875L2.2625 15.4125L0 6.0125L5.9875 6.4875L6 6.5ZM30.4625 26.3125V43.2375L28.2 46.6125L25.575 49.25H18.05L15.425 46.6125L13.1625 43.2375V26.3125L15.525 22.7875L21.8125 33.5L28.1 22.7875L30.4625 26.3125ZM28.5625 0L28.2125 0.8625L21.8125 16.35L15.4125 0.8625L15.0625 0H28.5625Z" fill="#41B883"/>
<path id="Vector_2" d="M38.3617 5.2625L30.4617 6.0125L28.2117 0.8625L28.5742 0H33.0992L38.3617 5.2625ZM29.6867 7.0875L28.3242 3.85L22.5617 17.8V21.425H24.6242H25.0367H25.1992H25.2492L30.1242 19.625L37.6367 6.4875L29.6867 7.0875ZM5.26172 5.2625L13.1617 6.0125L15.4117 0.8625L15.0617 0H10.5367L5.27422 5.2625H5.26172ZM27.3742 21.75L25.7492 22.75H17.8742L16.2492 21.75L15.4992 22.75L15.5242 22.7875L21.8117 33.5L28.0992 22.7875L28.1242 22.75L27.3742 21.75ZM5.98672 6.4875L13.4992 19.625L18.3742 21.425H18.4242H18.9992H21.0617V17.8L15.2992 3.8625L13.9367 7.1L5.98672 6.5V6.4875Z" fill="#455C71"/>
</g>
</svg>
